<svg width="17" height="19" viewBox="0 0 17 19" fill="none" xmlns="http://www.w3.org/2000/svg">
<path d="M16.25 15.0857C16.25 15.9382 15.949 16.7557 15.4132 17.3585C14.8773 17.9613 14.1506 18.3 13.3929 18.3H3.10714C2.34938 18.3 1.62266 17.9613 1.08684 17.3585C0.55102 16.7557 0.25 15.9382 0.25 15.0857V3.51427C0.25 2.66179 0.55102 1.84423 1.08684 1.24143C1.62266 0.638635 2.34938 0.299988 3.10714 0.299988H13.3929C14.1506 0.299988 14.8773 0.638635 15.4132 1.24143C15.949 1.84423 16.25 2.66179 16.25 3.51427V15.0857ZM12.8214 4.79999C12.8215 4.64953 12.7746 4.50381 12.689 4.38823C12.6034 4.27264 12.4844 4.1945 12.3529 4.16742L12.25 4.15713H4.25L4.14714 4.16742C4.01539 4.19425 3.8962 4.27229 3.81037 4.3879C3.72454 4.50351 3.67752 4.64936 3.67752 4.79999C3.67752 4.95062 3.72454 5.09647 3.81037 5.21208C3.8962 5.32769 4.01539 5.40572 4.14714 5.43256L4.25 5.44284H12.25L12.3529 5.43256C12.4844 5.40548 12.6034 5.32734 12.689 5.21175C12.7746 5.09616 12.8215 4.95045 12.8214 4.79999ZM12.8214 9.29999C12.8215 9.14953 12.7746 9.00381 12.689 8.88823C12.6034 8.77264 12.4844 8.6945 12.3529 8.66742L12.25 8.65713H4.25L4.14714 8.66742C4.01539 8.69425 3.8962 8.77229 3.81037 8.8879C3.72454 9.00351 3.67752 9.14936 3.67752 9.29999C3.67752 9.45062 3.72454 9.59647 3.81037 9.71208C3.8962 9.82769 4.01539 9.90572 4.14714 9.93256L4.25 9.94284H12.25L12.3529 9.93256C12.4844 9.90548 12.6034 9.82734 12.689 9.71175C12.7746 9.59616 12.8215 9.45045 12.8214 9.29999ZM12.8214 13.8C12.8215 13.6495 12.7746 13.5038 12.689 13.3882C12.6034 13.2726 12.4844 13.1945 12.3529 13.1674L12.25 13.1571H4.25L4.14714 13.1674C4.01539 13.1943 3.8962 13.2723 3.81037 13.3879C3.72454 13.5035 3.67752 13.6494 3.67752 13.8C3.67752 13.9506 3.72454 14.0965 3.81037 14.2121C3.8962 14.3277 4.01539 14.4057 4.14714 14.4326L4.25 14.4428H12.25L12.3529 14.4326C12.4844 14.4055 12.6034 14.3273 12.689 14.2117C12.7746 14.0962 12.8215 13.9504 12.8214 13.8Z" fill="#ADB5BD"/>
</svg>
