<svg width="15" height="17" viewBox="0 0 15 17" fill="none" xmlns="http://www.w3.org/2000/svg">
<path fill-rule="evenodd" clip-rule="evenodd" d="M4.35408 1.52282C5.13704 0.739853 6.19897 0.299988 7.30625 0.299988C8.20023 0.299988 9.06464 0.586707 9.77655 1.10922L3.94048 6.94529C3.41797 6.23338 3.13125 5.36896 3.13125 4.47499C3.13125 3.36771 3.57112 2.30578 4.35408 1.52282ZM4.62486 7.67513C5.3734 8.30237 6.32191 8.64999 7.30625 8.64999C8.41353 8.64999 9.47546 8.21012 10.2584 7.42716C11.0414 6.64419 11.4813 5.58227 11.4813 4.47499C11.4813 3.49065 11.1336 2.54214 10.5064 1.7936L4.62486 7.67513ZM1.29532 9.85022C1.54961 9.74582 1.82201 9.69264 2.09689 9.69374H12.525C13.0786 9.69374 13.6096 9.91367 14.0011 10.3052C14.3926 10.6966 14.6125 11.2276 14.6125 11.7812C14.6125 13.5462 13.7431 14.878 12.3841 15.7444C11.046 16.5971 9.24241 17 7.30625 17C5.37009 17 3.56649 16.5971 2.22841 15.7444C0.869444 14.877 0 13.5462 0 11.7812C0.000135178 11.5064 0.054534 11.2342 0.160076 10.9804C0.265619 10.7266 0.420228 10.4961 0.615039 10.3021C0.80985 10.1082 1.04103 9.95462 1.29532 9.85022Z" fill="#ADB5BD"/>
</svg>
