<svg width="20" height="20" viewBox="0 0 20 20" fill="none" xmlns="http://www.w3.org/2000/svg">
<path fill-rule="evenodd" clip-rule="evenodd" d="M3.95061 9.9999C3.95061 9.87388 3.98919 9.75089 4.06114 9.64747C4.59714 8.88888 5.5142 7.74486 6.71856 6.7974C7.92574 5.84773 9.35999 5.14275 10.9504 5.14275C12.5408 5.14275 13.975 5.84773 15.1822 6.7974C16.3866 7.74486 17.3036 8.88889 17.8396 9.64747C17.9116 9.7509 17.9501 9.87388 17.9501 9.9999C17.9501 10.1259 17.9116 10.2489 17.8396 10.3523C17.3036 11.1109 16.3866 12.2549 15.1822 13.2024C13.975 14.1521 12.5408 14.857 10.9504 14.857C9.35999 14.857 7.92574 14.1521 6.71856 13.2024C5.5142 12.2549 4.59714 11.1109 4.06114 10.3523C3.98919 10.2489 3.95061 10.1259 3.95061 9.9999ZM10.9504 3.42847C8.84005 3.42847 7.04073 4.36278 5.65862 5.45007C4.27472 6.53877 3.24732 7.82825 2.65955 8.66039L2.65954 8.66038L2.65728 8.66362C2.38328 9.05535 2.23633 9.52185 2.23633 9.9999C2.23633 10.4779 2.38328 10.9444 2.65728 11.3362L2.65727 11.3362L2.65955 11.3394C3.24732 12.1715 4.27472 13.461 5.65862 14.5497C7.04073 15.637 8.84005 16.5713 10.9504 16.5713C13.0607 16.5713 14.86 15.637 16.2421 14.5497C17.626 13.461 18.6534 12.1715 19.2412 11.3394L19.2435 11.3362C19.5175 10.9444 19.6644 10.4779 19.6644 9.9999C19.6644 9.52185 19.5175 9.05535 19.2435 8.66361L19.2412 8.66039C18.6534 7.82825 17.626 6.53877 16.2421 5.45007C14.86 4.36278 13.0607 3.42847 10.9504 3.42847ZM8.94964 9.99993C8.94964 8.89536 9.84507 7.99993 10.9496 7.99993C12.0542 7.99993 12.9496 8.89536 12.9496 9.99993C12.9496 11.1045 12.0542 11.9999 10.9496 11.9999C9.84507 11.9999 8.94964 11.1045 8.94964 9.99993ZM10.9496 6.28564C8.89829 6.28564 7.23535 7.94859 7.23535 9.99993C7.23535 12.0513 8.89829 13.7142 10.9496 13.7142C13.001 13.7142 14.6639 12.0513 14.6639 9.99993C14.6639 7.94859 13.001 6.28564 10.9496 6.28564Z" fill="#212529"/>
</svg>
