<svg width="21" height="26" viewBox="0 0 21 26" fill="none" xmlns="http://www.w3.org/2000/svg">
<path d="M7.37338 20V20.8C7.37338 21.6487 7.70279 22.4626 8.28915 23.0627C8.8755 23.6629 9.67077 24 10.5 24C11.3292 24 12.1245 23.6629 12.7109 23.0627C13.2972 22.4626 13.6266 21.6487 13.6266 20.8V20M3.48494 11.2C3.48365 10.2512 3.66585 9.31149 4.02104 8.4351C4.37623 7.55871 4.8974 6.76294 5.55449 6.09366C6.21158 5.42438 6.9916 4.89482 7.84959 4.53551C8.70758 4.1762 9.62657 3.99425 10.5536 4.00014C14.4218 4.02957 17.5158 7.32028 17.5158 11.2903V12C17.5158 15.5815 18.248 17.6599 18.8928 18.7958C18.9623 18.9172 18.9993 19.0552 19 19.1958C19.0007 19.3365 18.9652 19.4748 18.897 19.597C18.8288 19.7191 18.7304 19.8207 18.6116 19.8914C18.4928 19.9622 18.3579 19.9996 18.2204 20H2.77955C2.6421 19.9996 2.50717 19.9622 2.38838 19.8914C2.26958 19.8206 2.17113 19.719 2.10294 19.5969C2.03476 19.4747 1.99925 19.3363 2.00001 19.1957C2.00077 19.055 2.03777 18.917 2.10727 18.7956C2.75245 17.6597 3.48494 15.5814 3.48494 12L3.48494 11.2Z" stroke="#6C757D" stroke-width="2" stroke-linecap="round" stroke-linejoin="round"/>
<circle cx="16" cy="5" r="5" fill="#FF0000"/>
<path d="M14 3H14.6447L17.2155 6.12899C17.2621 6.18447 17.3036 6.23994 17.3398 6.29542C17.3761 6.3472 17.4227 6.41563 17.4796 6.50069V3H18V7H17.3553L14.7767 3.85992C14.7301 3.80074 14.6887 3.74711 14.6524 3.69903C14.6162 3.65095 14.5722 3.58437 14.5204 3.49931V7H14V3Z" fill="white"/>
</svg>
