<svg width="20" height="20" viewBox="0 0 20 20" fill="none" xmlns="http://www.w3.org/2000/svg">
<path d="M2.40926 10.845C2.23599 10.5973 2.14307 10.3023 2.14307 10C2.14307 9.69771 2.23599 9.40272 2.40926 9.15501C3.53283 7.56429 6.29926 4.28572 9.99997 4.28572C13.7007 4.28572 16.4671 7.56429 17.5907 9.15501C17.7639 9.40272 17.8569 9.69771 17.8569 10C17.8569 10.3023 17.7639 10.5973 17.5907 10.845C16.4671 12.4357 13.7007 15.7143 9.99997 15.7143C6.29926 15.7143 3.53283 12.4357 2.40926 10.845Z" stroke="#212529" stroke-width="1.71429" stroke-miterlimit="10" stroke-linecap="square"/>
<path d="M10 12.8571C11.578 12.8571 12.8572 11.578 12.8572 10C12.8572 8.42204 11.578 7.14285 10 7.14285C8.42207 7.14285 7.14288 8.42204 7.14288 10C7.14288 11.578 8.42207 12.8571 10 12.8571Z" stroke="#212529" stroke-width="1.71429" stroke-miterlimit="10" stroke-linecap="square"/>
<path d="M2.85712 17.1429L17.1428 2.85715" stroke="#212529" stroke-width="1.71429" stroke-miterlimit="10" stroke-linecap="square"/>
</svg>
