<svg width="22" height="21" viewBox="0 0 22 21" fill="none" xmlns="http://www.w3.org/2000/svg">
<path d="M11.0173 12.7907C8.03797 12.7907 5.61401 10.1826 5.61401 6.97674C5.61401 3.77093 8.03755 1.16279 11.0173 1.16279C13.9967 1.16279 16.4207 3.77093 16.4207 6.97674C16.4207 10.1826 13.9967 12.7907 11.0173 12.7907ZM11.0173 1.93798C8.4979 1.93798 6.44799 4.19845 6.44799 6.97674C6.44799 9.75503 8.4979 12.0155 11.0173 12.0155C13.5368 12.0155 15.5867 9.75503 15.5867 6.97674C15.5867 4.19845 13.5368 1.93798 11.0173 1.93798Z" fill="black" stroke="black"/>
<path d="M21 19.7675H1V17.1431C1.00078 16.5837 1.18721 16.0382 1.53385 15.5809C1.88049 15.1237 2.37046 14.777 2.93691 14.5881L8.08088 13.2706V11.6602H8.91485V13.8613L3.18752 15.3265C2.38982 15.5927 1.83356 16.3261 1.83356 17.1431V18.9923H20.166V17.1431C20.166 16.3265 19.6102 15.5927 18.782 15.3179L13.0847 13.8613V11.6765H13.9187V13.2706L19.0331 14.5792C20.2215 14.9726 21 15.9989 21 17.1427V19.7675Z" fill="black" stroke="black"/>
<path d="M14.6689 6.28603C14.6405 6.28603 14.6122 6.28564 14.5834 6.28448C13.6447 6.25269 12.5506 5.70076 11.8555 4.95463C11.3692 5.5306 10.675 5.90114 9.81555 6.0368C8.3123 6.27673 6.59306 5.74029 6.07016 5.26859L6.65102 4.712C6.90289 4.93952 8.33357 5.48487 9.67586 5.27246C10.509 5.14107 11.1095 4.74301 11.4606 4.0899L11.8092 3.44223L12.1957 4.07091C12.6573 4.82207 13.7648 5.4806 14.6142 5.50967C14.992 5.51897 15.2606 5.41393 15.432 5.1775L16.1237 5.61045C15.8068 6.04804 15.2927 6.28603 14.6689 6.28603Z" fill="black" stroke="black"/>
</svg>
