<svg width="20" height="20" viewBox="0 0 20 20" fill="none" xmlns="http://www.w3.org/2000/svg">
<path d="M15 9.28572L4.99998 9.28572C4.211 9.28572 3.57141 9.92531 3.57141 10.7143L3.57141 16.4286C3.57141 17.2176 4.211 17.8571 4.99998 17.8571L15 17.8571C15.789 17.8571 16.4286 17.2176 16.4286 16.4286V10.7143C16.4286 9.92531 15.789 9.28572 15 9.28572Z" stroke="#212529" stroke-width="1.71429" stroke-miterlimit="10" stroke-linecap="square"/>
<path d="M9.99998 15C10.789 15 11.4286 14.3604 11.4286 13.5714C11.4286 12.7824 10.789 12.1429 9.99998 12.1429C9.211 12.1429 8.57141 12.7824 8.57141 13.5714C8.57141 14.3604 9.211 15 9.99998 15Z" stroke="#212529" stroke-width="1.71429" stroke-miterlimit="10" stroke-linecap="square"/>
<path d="M13.5714 6.42857V5.71429C13.5808 4.7766 13.2173 3.8736 12.561 3.20386C11.9046 2.53411 11.0091 2.15247 10.0714 2.14286H10C9.06233 2.13353 8.15933 2.497 7.48958 3.15335C6.81984 3.8097 6.4382 4.70518 6.42859 5.64286V6.42857" stroke="#212529" stroke-width="1.71429" stroke-miterlimit="10" stroke-linecap="square"/>
</svg>
