          <svg
            width="33"
            height="32"
            viewBox="0 0 33 32"
            fill="none"
            xmlns="http://www.w3.org/2000/svg"
          >
            <path
              d="M27.7564 13.8184L16.302 13.8184L16.302 18.7272L22.794 18.7272C21.754 22 19.194 23.0912 16.25 23.0912C15.1094 23.0927 13.9852 22.819 12.9729 22.2934C11.9607 21.7678 11.0901 21.0058 10.4351 20.072C9.78015 19.1382 9.3601 18.0602 9.2106 16.9294C9.0611 15.7987 9.18658 14.6485 9.57638 13.5766C9.96618 12.5047 10.6088 11.5426 11.4497 10.772C12.2906 10.0014 13.305 9.44498 14.4068 9.15002C15.5086 8.85506 16.6653 8.83023 17.7788 9.07764C18.8922 9.32504 19.9296 9.83739 20.8028 10.5712L24.37 7.1736C22.9335 5.85047 21.1958 4.89794 19.3077 4.3987C17.4196 3.89946 15.4381 3.8686 13.5354 4.30879C11.6327 4.74898 9.86611 5.64692 8.38911 6.92467C6.9121 8.20242 5.76928 9.82135 5.05984 11.6409C4.35041 13.4605 4.0958 15.4257 4.31812 17.366C4.54044 19.3063 5.23298 21.1631 6.3356 22.775C7.43823 24.387 8.91763 25.7054 10.6454 26.616C12.3731 27.5265 14.297 28.0016 16.25 28C22.8668 28 28.8476 23.636 27.7564 13.8184Z"
              fill="#212529"
            />
          </svg>