          <svg
            width="33"
            height="32"
            viewBox="0 0 33 32"
            fill="none"
            xmlns="http://www.w3.org/2000/svg"
          >
            <path
              d="M13.9236 15.6556H15.3721L14.6479 13.4383L13.9236 15.6556Z"
              fill="#212529"
            />
            <path
              d="M17.3068 4.00025C5.25839 3.93191 -0.327919 17.6388 10.6292 23.7276C10.4365 24.4431 9.39181 28.3306 9.35023 28.636C9.3205 28.875 9.48918 29.0749 9.76313 28.9726C10.1587 28.913 14.3489 25.7413 15.0742 25.1906C32.4486 27.4314 35.8699 4.86032 17.3068 4.00025ZM11.0823 17.6612C11.0587 18.643 9.65681 18.6466 9.63207 17.6612V13.0192H8.5005C7.56339 12.9937 7.56155 11.5151 8.5005 11.4891H12.2137C13.1513 11.5157 13.1526 12.9923 12.2137 13.0192H11.0821L11.0823 17.6612ZM17.1768 18.2896C16.8513 18.4745 16.2218 18.4297 16.1123 18.0523L15.7531 17.0394H13.5418L13.1826 18.0528C13.0736 18.4294 12.4437 18.4748 12.1187 18.2896C11.9187 18.1904 11.7265 17.917 11.9468 17.18L13.6813 12.2604C14.0363 11.2514 15.2571 11.2469 15.6142 12.2612L17.3481 17.1786C17.5689 17.917 17.3768 18.1904 17.1768 18.2896ZM20.8418 18.2933H18.5152C18.1321 18.2933 17.8202 17.972 17.8202 17.577V12.27C17.8452 11.2415 19.2752 11.2384 19.3007 12.27V16.8607H20.8418C21.7571 16.8851 21.7592 18.2684 20.8418 18.2933ZM26.5184 17.7049C26.4539 18.3747 25.5802 18.6217 25.2215 18.0673L23.521 15.6394L23.2694 15.9105V17.6153C23.2455 18.6438 21.8439 18.6478 21.8189 17.6156V12.27C21.8442 11.2406 23.2436 11.2387 23.2692 12.27V13.9496L25.2923 11.7695C25.535 11.5044 25.9571 11.5614 26.1936 11.8265C26.4397 12.0786 26.4931 12.5385 26.2468 12.7977L24.5942 14.5783L26.3792 17.1264C26.4957 17.2912 26.5457 17.4999 26.5184 17.7049Z"
              fill="#212529"
            />
          </svg>