          <svg
            width="33"
            height="32"
            viewBox="0 0 33 32"
            fill="none"
            xmlns="http://www.w3.org/2000/svg"
          >
            <g clipPath="url(#clip0_369_5128)">
              <path
                d="M28.95 28.4428H4.15C4.04391 28.4428 3.94217 28.4009 3.86716 28.3264C3.79214 28.2518 3.75 28.1507 3.75 28.0452V3.39754C3.75 3.29211 3.79214 3.19099 3.86716 3.11644C3.94217 3.04188 4.04391 3 4.15 3H28.95C29.0561 3 29.1578 3.04188 29.2328 3.11644C29.3079 3.19099 29.35 3.29211 29.35 3.39754V28.0452C29.35 28.1507 29.3079 28.2518 29.2328 28.3264C29.1578 28.4009 29.0561 28.4428 28.95 28.4428ZM4.55 27.6477H28.55V3.79509H4.55V27.6477Z"
                fill="#212529"
              />
              <path
                d="M23.35 22.2809H18.75C18.6862 22.2809 18.6233 22.2657 18.5666 22.2367C18.5099 22.2077 18.461 22.1656 18.424 22.1139L14.75 16.9677V21.8833C14.75 21.9888 14.7078 22.0899 14.6328 22.1644C14.5578 22.239 14.4561 22.2809 14.35 22.2809H9.74998C9.64389 22.2809 9.54215 22.239 9.46713 22.1644C9.39212 22.0899 9.34998 21.9888 9.34998 21.8833V9.55947C9.34998 9.45403 9.39212 9.35292 9.46713 9.27836C9.54215 9.20381 9.64389 9.16193 9.74998 9.16193H14.35C14.4138 9.1619 14.4767 9.17704 14.5334 9.20609C14.5901 9.23514 14.639 9.27724 14.676 9.32889L18.35 14.4751V9.55947C18.35 9.45403 18.3921 9.35292 18.4671 9.27836C18.5421 9.20381 18.6439 9.16193 18.75 9.16193H23.35C23.4561 9.16193 23.5578 9.20381 23.6328 9.27836C23.7078 9.35292 23.75 9.45403 23.75 9.55947V21.8833C23.75 21.9888 23.7078 22.0899 23.6328 22.1644C23.5578 22.239 23.4561 22.2809 23.35 22.2809ZM18.95 21.4858H22.95V9.95701H19.15V15.7214C19.15 15.8057 19.1231 15.8879 19.0731 15.956C19.0231 16.0241 18.9525 16.0746 18.8717 16.1003C18.7909 16.126 18.704 16.1254 18.6235 16.0988C18.543 16.0721 18.4731 16.0207 18.424 15.952L14.15 9.95701H10.15V21.4858H13.95V15.7214C13.9499 15.6371 13.9769 15.5549 14.0269 15.4868C14.0769 15.4187 14.1474 15.3682 14.2282 15.3425C14.309 15.3168 14.396 15.3174 14.4765 15.344C14.5569 15.3707 14.6268 15.4221 14.676 15.4908L18.95 21.4858Z"
                fill="#212529"
              />
            </g>
            <defs>
              <clipPath id="clip0_369_5128">
                <rect
                  width="25.6"
                  height="25.4428"
                  fill="white"
                  transform="translate(3.75 3)"
                />
              </clipPath>
            </defs>
          </svg>