<svg width="16" height="17" viewBox="0 0 16 17" fill="none" xmlns="http://www.w3.org/2000/svg">
<path d="M9.11574 0.727847C8.80913 0.452376 8.41151 0.299988 7.99934 0.299988C7.58716 0.299988 7.18954 0.452376 6.88294 0.727847L0.758056 6.23133C0.583912 6.38794 0.444645 6.57941 0.349295 6.79332C0.253945 7.00724 0.204643 7.23881 0.20459 7.47301V15.3296C0.20459 15.7726 0.38058 16.1975 0.693845 16.5107C1.00711 16.824 1.43199 17 1.87501 17H4.10224C4.54527 17 4.97014 16.824 5.28341 16.5107C5.59667 16.1975 5.77266 15.7726 5.77266 15.3296V10.8751C5.77266 10.7274 5.83133 10.5858 5.93575 10.4814C6.04017 10.377 6.1818 10.3183 6.32947 10.3183H9.67032C9.81799 10.3183 9.95962 10.377 10.064 10.4814C10.1685 10.5858 10.2271 10.7274 10.2271 10.8751V15.3296C10.2271 15.7726 10.4031 16.1975 10.7164 16.5107C11.0296 16.824 11.4545 17 11.8975 17H14.1248C14.5678 17 14.9927 16.824 15.3059 16.5107C15.6192 16.1975 15.7952 15.7726 15.7952 15.3296V7.47301C15.7951 7.23881 15.7458 7.00724 15.6505 6.79332C15.5551 6.57941 15.4159 6.38794 15.2417 6.23133L9.11685 0.727847H9.11574Z" fill="#ADB5BD"/>
</svg>
