<svg width="13" height="12" viewBox="0 0 13 12" fill="none" xmlns="http://www.w3.org/2000/svg">
<path d="M1.87068 0.0336774C2.08333 -0.0570348 2.32925 0.0418128 2.41996 0.25446L2.42036 0.255389L2.42116 0.257273L2.42394 0.26387L2.43408 0.288133C2.4428 0.309133 2.45535 0.33967 2.47119 0.378992C2.50285 0.457621 2.5477 0.571469 2.60132 0.714513C2.70847 1.00038 2.85112 1.40403 2.99383 1.8771C3.27701 2.81584 3.5698 4.05802 3.5698 5.20272C3.5698 5.53793 3.52102 5.84791 3.43957 6.13959H9.56045C9.47899 5.84791 9.43021 5.53793 9.43021 5.20272C9.43021 4.05802 9.723 2.81584 10.0062 1.8771C10.1489 1.40403 10.2915 1.00038 10.3987 0.714513C10.4523 0.571468 10.4972 0.457621 10.5288 0.378992C10.5447 0.33967 10.5572 0.309133 10.5659 0.288133L10.5761 0.26387L10.5789 0.257273L10.5797 0.255389L10.5799 0.254805C10.6706 0.0421579 10.9167 -0.0570348 11.1293 0.0336774C11.342 0.124378 11.4408 0.370247 11.3501 0.582875L11.3497 0.583953L11.3477 0.588693L11.3392 0.609117C11.3315 0.627506 11.3201 0.655305 11.3054 0.691768C11.276 0.764708 11.2337 0.872226 11.1826 1.00837C11.0805 1.28087 10.9441 1.66685 10.8077 2.11889C10.5328 3.03034 10.2674 4.18016 10.2674 5.20272C10.2674 5.79371 10.4674 6.3008 10.7731 6.85273C10.8783 7.04258 11.0017 7.24553 11.1326 7.46092L11.1326 7.46095C11.4194 7.93282 11.7426 8.46437 11.99 9.04847C12.2876 9.75093 12.5 10.568 12.5 11.5814C12.5 11.8126 12.3125 12 12.0814 12C11.8502 12 11.6628 11.8126 11.6628 11.5814C11.6628 10.7494 11.5009 10.0768 11.2672 9.49185C8.25651 9.57382 7.10365 11.0942 6.89713 11.7138C6.84015 11.8847 6.68019 12 6.50001 12C6.31983 12 6.15986 11.8847 6.10289 11.7138C5.89636 11.0942 4.74351 9.57382 1.73282 9.49185C1.4991 10.0768 1.33726 10.7494 1.33726 11.5814C1.33726 11.8126 1.14985 12 0.918662 12C0.687475 12 0.500061 11.8126 0.500061 11.5814C0.500061 10.568 0.712426 9.75094 1.01002 9.04847C1.25746 8.46437 1.58057 7.93282 1.86741 7.46095C1.99835 7.24555 2.12173 7.04259 2.2269 6.85273C2.53265 6.3008 2.7326 5.79371 2.7326 5.20272C2.7326 4.18016 2.46725 3.03034 2.1923 2.11889C2.05594 1.66685 1.91952 1.28087 1.81738 1.00837C1.76635 0.872226 1.72398 0.764708 1.6946 0.691768C1.67992 0.655305 1.66849 0.627506 1.66085 0.609117L1.65232 0.588693L1.65032 0.583953L1.64991 0.582983C1.55926 0.370355 1.65806 0.124378 1.87068 0.0336774Z" fill="#62CEAD"/>
</svg>
