<svg width="11" height="16" viewBox="0 0 11 16" fill="none" xmlns="http://www.w3.org/2000/svg">
<path d="M10.3917 5.84494L10.6369 3.82292C10.6941 3.35185 10.7226 3.11631 10.6733 2.92052C10.6076 2.65946 10.4477 2.43707 10.2289 2.30228C10.0647 2.20118 9.84485 2.17058 9.40506 2.10939C8.96527 2.04819 8.74538 2.01759 8.56259 2.07041C8.31887 2.14084 8.11125 2.31209 7.98541 2.54649C7.89103 2.72228 7.83181 3.21057 7.77467 3.68164L3.40927 3.07419C3.4664 2.60311 3.52562 2.11483 3.47631 1.91903C3.41056 1.65798 3.25068 1.43559 3.03185 1.30079C2.86773 1.1997 2.64783 1.1691 2.20804 1.1079C1.76825 1.0467 1.54836 1.01611 1.36557 1.06893C1.12185 1.13936 0.914232 1.31061 0.788389 1.545C0.694007 1.7208 0.66544 1.95634 0.608307 2.42741L0.363068 4.44943C0.305934 4.92051 0.277367 5.15604 0.326681 5.35184C0.392433 5.61289 0.55231 5.83528 0.771139 5.97007C0.935261 6.07117 1.15515 6.10177 1.59494 6.16297L1.59495 6.16297L1.59495 6.16297C2.03474 6.22416 2.25463 6.25476 2.43742 6.20194C2.68114 6.13151 2.88876 5.96026 3.0146 5.72587C3.10898 5.55007 3.1682 5.06178 3.22534 4.59071L7.59074 5.19816C7.53361 5.66924 7.47439 6.15753 7.5237 6.35332C7.58945 6.61438 7.74933 6.83676 7.96816 6.97156C8.13228 7.07265 8.35217 7.10325 8.79196 7.16445L8.79196 7.16445L8.79197 7.16445C9.23176 7.22565 9.45165 7.25625 9.63444 7.20343C9.87816 7.133 10.0858 6.96175 10.2116 6.72735C10.306 6.55155 10.3346 6.31602 10.3917 5.84494Z" fill="#89DAC1"/>
<path d="M0.862139 13.6119L0.36945 11.6423L0.369445 11.6423C0.254666 11.1835 0.197276 10.9541 0.221987 10.753C0.254937 10.4849 0.385957 10.2418 0.586227 10.0772C0.736428 9.95379 0.950616 9.89232 1.37899 9.76937C1.80736 9.64642 2.02155 9.58495 2.20925 9.61142C2.45953 9.64671 2.68646 9.78705 2.84014 10.0016C2.95539 10.1625 3.07437 10.6381 3.18915 11.0969L7.44124 9.87652C7.32646 9.41768 7.20748 8.94206 7.23219 8.74101C7.26514 8.47293 7.39616 8.22985 7.59643 8.06525C7.74663 7.9418 7.96082 7.88032 8.38919 7.75737C8.81757 7.63443 9.03175 7.57295 9.21946 7.59942C9.46973 7.63472 9.69667 7.77506 9.85034 7.98957C9.96559 8.15046 10.023 8.37988 10.1378 8.83873L10.6305 10.8083C10.7452 11.2671 10.8026 11.4965 10.7779 11.6976C10.745 11.9657 10.6139 12.2087 10.4137 12.3734C10.2635 12.4968 10.0493 12.5583 9.62092 12.6812L9.62092 12.6812L9.62091 12.6812C9.19254 12.8042 8.97836 12.8656 8.79065 12.8392C8.54038 12.8039 8.31344 12.6635 8.15977 12.449C8.04452 12.2881 7.92554 11.8125 7.81076 11.3537L3.55867 12.5741C3.67345 13.0329 3.79243 13.5085 3.76771 13.7096C3.73476 13.9777 3.60374 14.2207 3.40347 14.3853C3.25327 14.5088 3.03909 14.5703 2.61072 14.6932L2.61071 14.6932L2.6107 14.6932C2.18234 14.8162 1.96815 14.8776 1.78045 14.8512C1.53017 14.8159 1.30324 14.6755 1.14957 14.461C1.03431 14.3001 0.976923 14.0707 0.862144 13.6119L0.862139 13.6119Z" fill="#89DAC1"/>
</svg>
