<svg width="11" height="12" viewBox="0 0 11 12" fill="none" xmlns="http://www.w3.org/2000/svg">
<path fill-rule="evenodd" clip-rule="evenodd" d="M0 4.8C0 2.53726 0 1.40589 0.715961 0.702944C1.43192 0 2.58424 0 4.88889 0H6.11111C8.41576 0 9.56808 0 10.284 0.702944C11 1.40589 11 2.53726 11 4.8V7.2C11 9.46274 11 10.5941 10.284 11.2971C9.56808 12 8.41576 12 6.11111 12H4.88889C2.58424 12 1.43192 12 0.715961 11.2971C0 10.5941 0 9.46274 0 7.2V4.8ZM2.59722 9.6C2.59722 9.35147 2.80242 9.15 3.05556 9.15H7.94444C8.19758 9.15 8.40278 9.35147 8.40278 9.6C8.40278 9.84853 8.19758 10.05 7.94444 10.05H3.05556C2.80242 10.05 2.59722 9.84853 2.59722 9.6ZM7.55049 2.5859C6.19288 2.33803 4.80718 2.33803 3.44956 2.5859L3.15881 2.63899C2.62087 2.7372 2.30353 3.35495 2.50608 3.90964L2.96098 5.15547C3.02692 5.33604 3.20448 5.4355 3.37672 5.38833C3.48505 5.35866 3.59378 5.3313 3.70283 5.30624L3.31212 4.1124C3.21659 3.82049 3.35516 3.49901 3.62164 3.39435C3.88812 3.2897 4.18158 3.4415 4.27712 3.73342L4.73696 5.13849C5.70191 5.046 6.67744 5.12928 7.62334 5.38833C7.79557 5.4355 7.97314 5.33604 8.03907 5.15547L8.49398 3.90964C8.69652 3.35495 8.37919 2.7372 7.84124 2.63899L7.55049 2.5859Z" fill="#62CEAD"/>
</svg>
